<svg xmlns="http://www.w3.org/2000/svg" width="332.4" height="332.4">
  <path d="M260.8 217.3L211 267c-.7.6-.7 1.7 0 2.4l14.8 14.8c.7.6 1.7.6 2.4 0l7.6-7.6c.7-.7 1.7-.7 2.4 0l40.5 40.5c20.3 20.3 21.6 19 36.4 4.3 14.8-14.9 16-16-4.3-36.4l-40.5-40.5c-.7-.7-.7-1.8 0-2.4l7.6-7.6c.7-.7.7-1.8 0-2.4l-14.8-14.8c-.7-.7-1.8-.7-2.4 0zm37.9 73.3L284.4 305a4.7 4.7 0 0 1-6.6-6.7L292 284a4.7 4.7 0 1 1 6.7 6.6zm-20.5-20.5l-14.3 14.3a4.7 4.7 0 0 1-6.6-6.7l14.2-14.2a4.7 4.7 0 1 1 6.7 6.6zm-72.5-80.5a995.6 995.6 0 0 1-28.6 23.9c-.4.3-1.2 1.3-.2 2 16.2 12.8 28 21.5 34 25.8 2 1.6 3.3 2.4 4.7 1l19.6-19.6c1.5-1.5 1-2.7-.3-4.2l-26.8-29c-.4-.3-1-1-2.4.1zm-79.9-18.9l31.5-34c.5-.7 0-1.9-.4-2.3L136 111.9C110.7 84.8 45.4 2.5 45.4 2.5s-4.5-6-6.2.7c-2.8 11.2-7.8 37 4.2 72.4 9.2 26.9 44 63 79.6 95 .6.4 1.7 1 2.8.1zM293.2 3.2c-1.7-6.8-6.2-.7-6.2-.7s-65.2 82.3-90.6 109.4a51755 51755 0 0 0-98.9 106.6c-1.4 1.5-1.7 2.7-.3 4.2l19.6 19.6c1.5 1.4 2.7.6 4.8-1C144 225 270.1 130.8 289 75.6c12-35.3 7-61.2 4.2-72.4zM69.3 217.3L54.4 232c-.6.6-.6 1.7 0 2.4L62 242c.7.6.7 1.7 0 2.4L21.5 285c-20.3 20.3-19 21.5-4.2 36.4 14.8 14.8 16 16 36.3-4.3l40.5-40.5c.7-.7 1.8-.7 2.4 0l7.6 7.6c.7.7 1.8.7 2.4 0l14.9-14.8c.6-.7.6-1.8 0-2.4l-49.7-49.7c-.7-.7-1.8-.7-2.4 0zM33.8 284a4.7 4.7 0 0 1 6.6 0l14.3 14.2a4.7 4.7 0 0 1-6.7 6.7l-14.2-14.3a4.7 4.7 0 0 1 0-6.6zm20.5-20.5a4.7 4.7 0 0 1 6.6 0l14.3 14.2a4.7 4.7 0 0 1-6.7 6.7L54.3 270a4.7 4.7 0 0 1 0-6.6z"/>
</svg>